<svg width="32" height="32" viewBox="0 0 32 32" fill="none" xmlns="http://www.w3.org/2000/svg">
<path d="M25.9219 23.9219L23.0703 12.5156C22.9141 11.9297 22.4062 11.5 21.8594 11.5H19.5156C19.6328 11.1484 19.7109 10.7188 19.7109 10.25C19.7109 8.17969 18.0703 6.5 15.9609 6.5C13.8906 6.5 12.2109 8.17969 12.2109 10.25C12.2109 10.7188 12.2891 11.1094 12.4062 11.5H10.1016C9.55469 11.5 9.04688 11.9297 8.89062 12.5156L6.03906 23.9219C5.72656 25.25 6.625 26.5 7.83594 26.5H24.0859C25.3359 26.5 26.2344 25.25 25.9219 23.9219ZM16 11.5C15.2969 11.5 14.7109 10.9531 14.7109 10.25C14.7109 9.58594 15.2969 9 16 9C16.6641 9 17.25 9.58594 17.25 10.25C17.25 10.9531 16.6641 11.5 16 11.5Z" fill="#FF3C6A" fill-opacity="0.3"/>
<path d="M25.9219 23.9219L26.8954 23.6928L26.892 23.6793L25.9219 23.9219ZM23.0703 12.5156L24.0405 12.2731L24.0386 12.2655L24.0365 12.258L23.0703 12.5156ZM19.5156 11.5L18.5669 11.1838L18.1282 12.5H19.5156V11.5ZM12.4062 11.5V12.5H13.7503L13.3641 11.2127L12.4062 11.5ZM8.89062 12.5156L7.92439 12.258L7.92238 12.2655L7.92048 12.2731L8.89062 12.5156ZM6.03906 23.9219L5.06883 23.6793L5.06565 23.6928L6.03906 23.9219ZM26.892 23.6793L24.0405 12.2731L22.1002 12.7582L24.9517 24.1644L26.892 23.6793ZM24.0365 12.258C23.7832 11.3079 22.9313 10.5 21.8594 10.5V12.5C21.8674 12.5 21.9088 12.5039 21.9677 12.5534C22.0265 12.6029 22.0792 12.6799 22.1041 12.7733L24.0365 12.258ZM21.8594 10.5H19.5156V12.5H21.8594V10.5ZM20.4643 11.8162C20.6153 11.3633 20.7109 10.8269 20.7109 10.25H18.7109C18.7109 10.6106 18.6504 10.9335 18.5669 11.1838L20.4643 11.8162ZM20.7109 10.25C20.7109 7.63422 18.6294 5.5 15.9609 5.5V7.5C17.5112 7.5 18.7109 8.72515 18.7109 10.25H20.7109ZM15.9609 5.5C13.3383 5.5 11.2109 7.6274 11.2109 10.25H13.2109C13.2109 8.73197 14.4429 7.5 15.9609 7.5V5.5ZM11.2109 10.25C11.2109 10.8405 11.3113 11.3302 11.4484 11.7873L13.3641 11.2127C13.2668 10.8885 13.2109 10.597 13.2109 10.25H11.2109ZM12.4062 10.5H10.1016V12.5H12.4062V10.5ZM10.1016 10.5C9.02965 10.5 8.17773 11.3079 7.92439 12.258L9.85686 12.7733C9.88175 12.6799 9.93445 12.6029 9.99321 12.5534C10.0522 12.5039 10.0935 12.5 10.1016 12.5V10.5ZM7.92048 12.2731L5.06892 23.6793L7.0092 24.1644L9.86077 12.7582L7.92048 12.2731ZM5.06565 23.6928C4.63379 25.5282 5.86181 27.5 7.83594 27.5V25.5C7.38819 25.5 6.81933 24.9718 7.01248 24.1509L5.06565 23.6928ZM7.83594 27.5H24.0859V25.5H7.83594V27.5ZM24.0859 27.5C26.0852 27.5 27.3306 25.543 26.8953 23.6928L24.9485 24.1509C25.1381 24.957 24.5867 25.5 24.0859 25.5V27.5ZM16 10.5C15.8086 10.5 15.7109 10.3612 15.7109 10.25H13.7109C13.7109 11.5451 14.7851 12.5 16 12.5V10.5ZM15.7109 10.25C15.7109 10.2154 15.7277 10.1529 15.7914 10.0905C15.8537 10.0295 15.93 10 16 10V8C14.7645 8 13.7109 9.01391 13.7109 10.25H15.7109ZM16 10C16.0358 10 16.1018 10.018 16.1669 10.0831C16.232 10.1482 16.25 10.2142 16.25 10.25H18.25C18.25 9.03365 17.2163 8 16 8V10ZM16.25 10.25C16.25 10.3152 16.2246 10.375 16.1746 10.424C16.1214 10.476 16.0562 10.5 16 10.5V12.5C17.196 12.5 18.25 11.5256 18.25 10.25H16.25Z" fill="#FF3C6A"/>
</svg>
