<svg width="24" height="24" viewBox="0 0 24 24" fill="none" xmlns="http://www.w3.org/2000/svg">
<path d="M6.75 6.5C7.21484 6.5 7.625 6.91016 7.625 7.375C7.625 7.86719 7.21484 8.25 6.75 8.25C6.25781 8.25 5.875 7.86719 5.875 7.375C5.875 6.91016 6.25781 6.5 6.75 6.5ZM18.3438 6.71875C18.6992 6.71875 19 7.01953 19 7.375C19 7.75781 18.6992 8.03125 18.3438 8.03125H10.0312C9.64844 8.03125 9.375 7.75781 9.375 7.375C9.375 7.01953 9.64844 6.71875 10.0312 6.71875H18.3438ZM18.3438 11.0938C18.6992 11.0938 19 11.3945 19 11.75C19 12.1328 18.6992 12.4062 18.3438 12.4062H10.0312C9.64844 12.4062 9.375 12.1328 9.375 11.75C9.375 11.3945 9.64844 11.0938 10.0312 11.0938H18.3438ZM18.3438 15.4688C18.6992 15.4688 19 15.7695 19 16.125C19 16.5078 18.6992 16.7812 18.3438 16.7812H10.0312C9.64844 16.7812 9.375 16.5078 9.375 16.125C9.375 15.7695 9.64844 15.4688 10.0312 15.4688H18.3438ZM6.75 12.625C6.25781 12.625 5.875 12.2422 5.875 11.75C5.875 11.2852 6.25781 10.875 6.75 10.875C7.21484 10.875 7.625 11.2852 7.625 11.75C7.625 12.2422 7.21484 12.625 6.75 12.625ZM6.75 15.25C7.21484 15.25 7.625 15.6602 7.625 16.125C7.625 16.6172 7.21484 17 6.75 17C6.25781 17 5.875 16.6172 5.875 16.125C5.875 15.6602 6.25781 15.25 6.75 15.25Z" fill="#3C96FF"/>
</svg>
