<svg width="32" height="32" viewBox="0 0 32 32" fill="none" xmlns="http://www.w3.org/2000/svg">
<path d="M23.5 7.75C24.1641 7.75 24.75 8.33594 24.75 9C24.75 9.70312 24.1641 10.25 23.5 10.25H9.125C8.77344 10.25 8.5 10.5625 8.5 10.875C8.5 11.2266 8.77344 11.5 9.125 11.5H23.5C24.8672 11.5 26 12.6328 26 14V22.75C26 24.1562 24.8672 25.25 23.5 25.25H8.5C7.09375 25.25 6 24.1562 6 22.75V10.25C6 8.88281 7.09375 7.75 8.5 7.75H23.5ZM22.25 19.625C22.9141 19.625 23.5 19.0781 23.5 18.375C23.5 17.7109 22.9141 17.125 22.25 17.125C21.5469 17.125 21 17.7109 21 18.375C21 19.0781 21.5469 19.625 22.25 19.625Z" fill="#3C96FF" fill-opacity="0.3"/>
<path d="M23.5 8.75C23.5358 8.75 23.6018 8.76799 23.6669 8.83308C23.732 8.89817 23.75 8.9642 23.75 9H25.75C25.75 7.78365 24.7163 6.75 23.5 6.75V8.75ZM23.75 9C23.75 9.06523 23.7246 9.12499 23.6746 9.174C23.6214 9.226 23.5562 9.25 23.5 9.25V11.25C24.696 11.25 25.75 10.2756 25.75 9H23.75ZM23.5 9.25H9.125V11.25H23.5V9.25ZM9.125 9.25C8.18147 9.25 7.5 10.0508 7.5 10.875H9.5C9.5 11.0044 9.44858 11.0893 9.40265 11.1372C9.35099 11.1911 9.25549 11.25 9.125 11.25V9.25ZM7.5 10.875C7.5 11.7788 8.22115 12.5 9.125 12.5V10.5C9.21495 10.5 9.31291 10.5374 9.38777 10.6122C9.46264 10.6871 9.5 10.785 9.5 10.875H7.5ZM9.125 12.5H23.5V10.5H9.125V12.5ZM23.5 12.5C24.3149 12.5 25 13.1851 25 14H27C27 12.0805 25.4195 10.5 23.5 10.5V12.5ZM25 14V22.75H27V14H25ZM25 22.75C25 23.5938 24.3251 24.25 23.5 24.25V26.25C25.4093 26.25 27 24.7187 27 22.75H25ZM23.5 24.25H8.5V26.25H23.5V24.25ZM8.5 24.25C7.64603 24.25 7 23.604 7 22.75H5C5 24.7085 6.54147 26.25 8.5 26.25V24.25ZM7 22.75V10.25H5V22.75H7ZM7 10.25C7 9.42488 7.6562 8.75 8.5 8.75V6.75C6.5313 6.75 5 8.34075 5 10.25H7ZM8.5 8.75H23.5V6.75H8.5V8.75ZM22.25 20.625C23.446 20.625 24.5 19.6506 24.5 18.375H22.5C22.5 18.4402 22.4746 18.5 22.4246 18.549C22.3714 18.601 22.3062 18.625 22.25 18.625V20.625ZM24.5 18.375C24.5 17.1587 23.4663 16.125 22.25 16.125V18.125C22.2858 18.125 22.3518 18.143 22.4169 18.2081C22.482 18.2732 22.5 18.3392 22.5 18.375H24.5ZM22.25 16.125C20.9744 16.125 20 17.179 20 18.375H22C22 18.3188 22.024 18.2536 22.076 18.2004C22.125 18.1504 22.1848 18.125 22.25 18.125V16.125ZM20 18.375C20 19.6304 20.9946 20.625 22.25 20.625V18.625C22.1642 18.625 22.1059 18.594 22.0684 18.5566C22.031 18.5191 22 18.4608 22 18.375H20Z" fill="#3C96FF"/>
</svg>
