<svg width="32" height="32" viewBox="0 0 32 32" fill="none" xmlns="http://www.w3.org/2000/svg">
<path d="M23.5 9C24.8672 9 26 10.1328 26 11.5V14.0391C25.375 14.1172 24.8281 14.3906 24.3594 14.8594L17.2891 21.9297C16.9766 22.2422 16.7422 22.6328 16.625 23.1016L16.3906 24H6C4.59375 24 3.5 22.9062 3.5 21.5V11.5C3.5 10.1328 4.59375 9 6 9H23.5ZM7.875 17.75C7.52344 17.75 7.25 18.0625 7.25 18.375C7.25 18.7266 7.52344 19 7.875 19H16.625C16.9375 19 17.25 18.7266 17.25 18.375C17.25 18.0625 16.9375 17.75 16.625 17.75H7.875ZM7.875 15.25H20.375C20.6875 15.25 21 14.9766 21 14.625C21 14.3125 20.6875 14 20.375 14H7.875C7.52344 14 7.25 14.3125 7.25 14.625C7.25 14.9766 7.52344 15.25 7.875 15.25ZM28.0312 16.3047C28.6172 16.8906 28.6172 17.8672 28.0312 18.4922L26.8594 19.6641L24.0859 16.8906L25.2578 15.7188C25.8438 15.1328 26.8594 15.1328 27.4453 15.7188L28.0312 16.3047ZM18.1484 22.7891L23.2266 17.75L26 20.5234L20.9219 25.5625C20.7656 25.7188 20.5703 25.8359 20.375 25.9141L17.9922 26.5C17.7969 26.5391 17.5625 26.5 17.4062 26.3438C17.25 26.1875 17.2109 25.9531 17.25 25.7188L17.8359 23.375C17.875 23.1797 17.9922 22.9844 18.1484 22.7891Z" fill="#FF3C6A" fill-opacity="0.3"/>
<path d="M26 14.0391L26.124 15.0313L27 14.9218V14.0391H26ZM16.625 23.1016L17.5927 23.354L17.5951 23.3441L16.625 23.1016ZM16.3906 24V25H17.1632L17.3582 24.2524L16.3906 24ZM28.0312 18.4922L28.7384 19.1993L28.7498 19.1879L28.7608 19.1761L28.0312 18.4922ZM26.8594 19.6641L26.1523 20.3712L26.8594 21.0783L27.5665 20.3712L26.8594 19.6641ZM24.0859 16.8906L23.3788 16.1835L22.6717 16.8906L23.3788 17.5977L24.0859 16.8906ZM18.1484 22.7891L17.4441 22.0792L17.4034 22.1196L17.3676 22.1644L18.1484 22.7891ZM23.2266 17.75L23.9337 17.0429L23.2293 16.3385L22.5222 17.0402L23.2266 17.75ZM26 20.5234L26.7044 21.2333L27.4169 20.5262L26.7071 19.8163L26 20.5234ZM20.9219 25.5625L20.2175 24.8527L20.2148 24.8554L20.9219 25.5625ZM20.375 25.9141L20.6138 26.8851L20.6816 26.8685L20.7464 26.8425L20.375 25.9141ZM17.9922 26.5L18.1883 27.4806L18.2097 27.4763L18.231 27.4711L17.9922 26.5ZM17.25 25.7188L16.2799 25.4762L16.2702 25.515L16.2636 25.5544L17.25 25.7188ZM17.8359 23.375L18.8061 23.6175L18.8119 23.5944L18.8165 23.5711L17.8359 23.375ZM23.5 10C24.3149 10 25 10.6851 25 11.5H27C27 9.58053 25.4195 8 23.5 8V10ZM25 11.5V14.0391H27V11.5H25ZM25.876 13.0468C25.0182 13.154 24.2694 13.5351 23.6523 14.1523L25.0665 15.5665C25.3868 15.2461 25.7318 15.0804 26.124 15.0313L25.876 13.0468ZM23.6523 14.1523L16.582 21.2226L17.9962 22.6368L25.0665 15.5665L23.6523 14.1523ZM16.582 21.2226C16.1479 21.6567 15.8182 22.2056 15.6549 22.859L17.5951 23.3441C17.6662 23.06 17.8052 22.8277 17.9962 22.6368L16.582 21.2226ZM15.6574 22.8491L15.423 23.7476L17.3582 24.2524L17.5926 23.354L15.6574 22.8491ZM16.3906 23H6V25H16.3906V23ZM6 23C5.14603 23 4.5 22.354 4.5 21.5H2.5C2.5 23.4585 4.04147 25 6 25V23ZM4.5 21.5V11.5H2.5V21.5H4.5ZM4.5 11.5C4.5 10.6749 5.1562 10 6 10V8C4.0313 8 2.5 9.59075 2.5 11.5H4.5ZM6 10H23.5V8H6V10ZM7.875 16.75C6.93147 16.75 6.25 17.5508 6.25 18.375H8.25C8.25 18.5044 8.19858 18.5893 8.15265 18.6372C8.10099 18.6911 8.00549 18.75 7.875 18.75V16.75ZM6.25 18.375C6.25 19.2788 6.97115 20 7.875 20V18C7.96495 18 8.06291 18.0374 8.13777 18.1122C8.21264 18.1871 8.25 18.285 8.25 18.375H6.25ZM7.875 20H16.625V18H7.875V20ZM16.625 20C17.4492 20 18.25 19.3185 18.25 18.375H16.25C16.25 18.2445 16.3089 18.149 16.3628 18.0973C16.4107 18.0514 16.4956 18 16.625 18V20ZM18.25 18.375C18.25 17.8935 18.0193 17.4957 17.7618 17.2382C17.5043 16.9807 17.1065 16.75 16.625 16.75V18.75C16.456 18.75 16.3707 18.6756 16.3476 18.6524C16.3244 18.6293 16.25 18.544 16.25 18.375H18.25ZM16.625 16.75H7.875V18.75H16.625V16.75ZM7.875 16.25H20.375V14.25H7.875V16.25ZM20.375 16.25C21.1992 16.25 22 15.5685 22 14.625H20C20 14.4945 20.0589 14.399 20.1128 14.3473C20.1607 14.3014 20.2456 14.25 20.375 14.25V16.25ZM22 14.625C22 14.1435 21.7693 13.7457 21.5118 13.4882C21.2543 13.2307 20.8565 13 20.375 13V15C20.206 15 20.1207 14.9256 20.0976 14.9024C20.0744 14.8793 20 14.794 20 14.625H22ZM20.375 13H7.875V15H20.375V13ZM7.875 13C6.93147 13 6.25 13.8008 6.25 14.625H8.25C8.25 14.7544 8.19858 14.8393 8.15265 14.8872C8.10099 14.9411 8.00549 15 7.875 15V13ZM6.25 14.625C6.25 15.5288 6.97115 16.25 7.875 16.25V14.25C7.96495 14.25 8.06291 14.2874 8.13777 14.3622C8.21264 14.4371 8.25 14.535 8.25 14.625H6.25ZM27.3241 17.0118C27.5075 17.1951 27.5391 17.555 27.3017 17.8082L28.7608 19.1761C29.6952 18.1794 29.7269 16.5861 28.7384 15.5976L27.3241 17.0118ZM27.3241 17.7851L26.1523 18.957L27.5665 20.3712L28.7384 19.1993L27.3241 17.7851ZM27.5665 18.957L24.793 16.1835L23.3788 17.5977L26.1523 20.3712L27.5665 18.957ZM24.793 17.5977L25.9649 16.4259L24.5507 15.0116L23.3788 16.1835L24.793 17.5977ZM25.9649 16.4259C26.1603 16.2304 26.5428 16.2304 26.7382 16.4259L28.1524 15.0116C27.176 14.0352 25.5272 14.0352 24.5507 15.0116L25.9649 16.4259ZM26.7382 16.4259L27.3241 17.0118L28.7384 15.5976L28.1524 15.0116L26.7382 16.4259ZM18.8528 23.4989L23.9309 18.4598L22.5222 17.0402L17.4441 22.0792L18.8528 23.4989ZM22.5195 18.4571L25.2929 21.2305L26.7071 19.8163L23.9337 17.0429L22.5195 18.4571ZM25.2956 19.8136L20.2175 24.8527L21.6262 26.2723L26.7044 21.2333L25.2956 19.8136ZM20.2148 24.8554C20.1723 24.8979 20.0992 24.9474 20.0036 24.9856L20.7464 26.8425C21.0414 26.7245 21.359 26.5396 21.629 26.2696L20.2148 24.8554ZM20.1362 24.943L17.7534 25.5289L18.231 27.4711L20.6138 26.8851L20.1362 24.943ZM17.7961 25.5194C17.8312 25.5124 17.87 25.5113 17.9162 25.5223C17.9654 25.534 18.0415 25.5647 18.1134 25.6366L16.6991 27.0509C17.1526 27.5043 17.7595 27.5663 18.1883 27.4806L17.7961 25.5194ZM18.1134 25.6366C18.1879 25.7112 18.2192 25.7912 18.23 25.8389C18.2397 25.8816 18.2339 25.8982 18.2364 25.8831L16.2636 25.5544C16.1946 25.9685 16.2305 26.5822 16.6991 27.0509L18.1134 25.6366ZM18.2201 25.9613L18.8061 23.6175L16.8658 23.1325L16.2799 25.4762L18.2201 25.9613ZM18.8165 23.5711C18.8112 23.5977 18.8064 23.5968 18.8245 23.5639C18.8425 23.5311 18.8748 23.4818 18.9293 23.4138L17.3676 22.1644C17.1765 22.4032 16.9413 22.7493 16.8554 23.1789L18.8165 23.5711Z" fill="#FF3C6A"/>
</svg>
