<svg width="120" height="32" viewBox="0 0 120 32" fill="none" xmlns="http://www.w3.org/2000/svg">
<path fill-rule="evenodd" clip-rule="evenodd" d="M0 32.0003H32.231C34.296 32.0003 36.14 30.3083 36.361 28.2486L39.607 0.221001H7.37601C5.31 0.221001 3.46701 1.9129 3.245 3.9727L0 32.0003ZM19.84 26.4095H29.502L30.24 21.0394C30.608 18.3911 28.691 16.2578 26.036 16.2578C23.38 16.2578 20.947 18.3911 20.578 21.0394L19.84 26.4095ZM14.456 16.1842C15.857 16.1842 17.037 17.3612 17.037 18.7589C17.037 19.9359 16.226 20.8922 15.12 21.1865C15.046 21.2601 14.972 21.2601 14.972 21.3336C14.972 21.4072 15.046 21.4072 15.12 21.4807C16.079 21.8486 16.816 22.8049 16.816 23.9083C16.816 25.1589 15.857 26.2624 14.604 26.4095H14.235H11.063H6.564L7.67099 16.2578H14.456V16.1842ZM26.626 4.6348C29.945 4.4141 32.674 6.4738 32.674 9.2693C32.674 12.0647 29.945 14.5658 26.626 14.7865C23.307 15.0072 20.578 12.9474 20.578 10.152C20.578 7.283 23.307 4.8555 26.626 4.6348ZM13.128 4.7083C16.447 4.4876 19.176 6.5474 19.176 9.3428C19.176 12.1382 16.447 14.6394 13.128 14.8601C9.80899 15.0807 7.08099 13.021 7.08099 10.2256C7.08099 7.4302 9.80899 4.929 13.128 4.7083Z" fill="white"/>
<path fill-rule="evenodd" clip-rule="evenodd" d="M56.054 6.768C60.922 6.768 64.831 10.6669 64.831 15.522C64.831 20.3772 60.848 24.2761 56.054 24.2761C51.186 24.2761 47.203 20.3772 47.203 15.522C47.277 10.7404 51.186 6.768 56.054 6.768ZM56.054 11.2554C58.414 11.2554 60.406 13.168 60.406 15.522C60.406 17.8761 58.488 19.7887 56.054 19.7887C53.694 19.7887 51.702 17.8761 51.702 15.522C51.702 13.168 53.694 11.2554 56.054 11.2554Z" fill="white"/>
<path fill-rule="evenodd" clip-rule="evenodd" d="M74.198 6.768C79.066 6.768 83.048 10.6669 83.048 15.522C83.048 20.3772 79.066 24.2761 74.198 24.2761C69.33 24.2761 65.421 20.3772 65.421 15.522C65.347 10.7404 69.33 6.768 74.198 6.768ZM74.198 11.2554C76.558 11.2554 78.549 13.168 78.549 15.522C78.549 17.8761 76.632 19.7887 74.198 19.7887C71.838 19.7887 69.846 17.8761 69.846 15.522C69.846 13.168 71.764 11.2554 74.198 11.2554Z" fill="white"/>
<path fill-rule="evenodd" clip-rule="evenodd" d="M92.858 6.7678C97.726 6.7678 101.709 10.6667 101.709 15.5218C101.709 20.377 97.726 24.2759 92.858 24.2759C87.99 24.2759 84.081 20.377 84.081 15.5218V0H89.096V7.6506C90.203 7.1356 91.53 6.7678 92.858 6.7678ZM92.858 11.2552C95.218 11.2552 97.209 13.1678 97.209 15.5218C97.209 17.8759 95.292 19.7885 92.858 19.7885C90.498 19.7885 88.58 17.8759 88.58 15.5218C88.58 13.1678 90.498 11.2552 92.858 11.2552Z" fill="white"/>
<path fill-rule="evenodd" clip-rule="evenodd" d="M111.149 24.2761C106.282 24.2761 102.373 20.3772 102.373 15.522C102.373 10.6669 106.282 6.768 111.149 6.768C116.017 6.768 119.926 10.6669 120 15.522V24.3496H114.985V23.4669C113.805 23.9818 112.551 24.2761 111.149 24.2761ZM111.149 19.7887C108.789 19.7887 106.872 17.8761 106.872 15.522C106.872 13.168 108.789 11.2554 111.149 11.2554C113.51 11.2554 115.427 13.168 115.427 15.522C115.427 17.8761 113.51 19.7887 111.149 19.7887Z" fill="white"/>
</svg>
