<svg width="24" height="19" viewBox="0 0 24 19" fill="none" xmlns="http://www.w3.org/2000/svg">
<path d="M6.02344 3.51953C7.60547 2.32422 9.57422 1.375 12 1.375C14.8125 1.375 17.0977 2.67578 18.75 4.22266C20.4023 5.73438 21.4922 7.5625 22.0195 8.82812C22.125 9.10938 22.125 9.42578 22.0195 9.70703C21.5625 10.832 20.6133 12.4492 19.207 13.8555L22.8984 16.7734C23.2852 17.0547 23.3555 17.582 23.0391 17.9336C22.7578 18.3203 22.2305 18.3906 21.8789 18.0742L1.06641 1.76172C0.679688 1.48047 0.609375 0.953125 0.925781 0.601562C1.20703 0.214844 1.73438 0.144531 2.08594 0.460938L6.02344 3.51953ZM7.39453 4.60938L9.01172 5.875C9.82031 5.17188 10.8398 4.75 12 4.75C14.4609 4.75 16.5 6.78906 16.5 9.25C16.5 10.0234 16.2891 10.7266 15.9727 11.3242L17.8711 12.8008C19.0664 11.6055 19.9102 10.2344 20.3672 9.25C19.875 8.19531 18.9609 6.71875 17.5898 5.45312C16.1484 4.11719 14.2852 3.0625 12 3.0625C10.207 3.0625 8.66016 3.69531 7.39453 4.60938ZM14.6016 10.2695C14.7422 9.95312 14.8125 9.60156 14.8125 9.25C14.8125 7.70312 13.5469 6.4375 12 6.4375C11.9648 6.4375 11.9297 6.4375 11.8945 6.4375C11.9648 6.64844 12 6.82422 12 7C12 7.38672 11.8945 7.70312 11.7539 8.01953L14.6016 10.2695ZM14.9531 14.8398L16.4297 16C15.1289 16.7031 13.6523 17.125 12 17.125C9.15234 17.125 6.86719 15.8594 5.21484 14.3125C3.5625 12.7656 2.47266 10.9375 1.94531 9.70703C1.83984 9.42578 1.83984 9.10938 1.94531 8.82812C2.29688 8.01953 2.85938 7 3.66797 5.94531L4.96875 7C4.33594 7.80859 3.87891 8.61719 3.59766 9.25C4.08984 10.3047 5.00391 11.8164 6.375 13.082C7.81641 14.418 9.67969 15.4375 12 15.4375C13.0547 15.4375 14.0391 15.2266 14.9531 14.8398ZM7.5 9.25C7.5 9.17969 7.5 9.07422 7.5 8.96875L9.46875 10.5156C9.82031 11.2539 10.5234 11.8164 11.3672 11.9922L13.3359 13.5742C12.9141 13.6797 12.457 13.75 11.9648 13.75C9.50391 13.75 7.46484 11.7461 7.46484 9.25H7.5Z" fill="#2B2C3A" fill-opacity="0.5"/>
</svg>
