<svg width="22" height="17" viewBox="0 0 22 17" fill="none" xmlns="http://www.w3.org/2000/svg">
<path d="M6.5 8.25C6.5 5.78906 8.50391 3.75 11 3.75C13.4609 3.75 15.5 5.78906 15.5 8.25C15.5 10.7461 13.4609 12.75 11 12.75C8.50391 12.75 6.5 10.7461 6.5 8.25ZM11 11.0625C12.5469 11.0625 13.8125 9.83203 13.8125 8.25C13.8125 6.70312 12.5469 5.4375 11 5.4375C10.9648 5.4375 10.9297 5.4375 10.8945 5.4375C10.9648 5.64844 11 5.82422 11 6C11 7.26562 9.98047 8.25 8.75 8.25C8.53906 8.25 8.36328 8.25 8.1875 8.17969C8.1875 8.21484 8.1875 8.25 8.1875 8.25C8.1875 9.83203 9.41797 11.0625 11 11.0625ZM4.21484 3.22266C5.86719 1.67578 8.15234 0.375 11 0.375C13.8125 0.375 16.0977 1.67578 17.75 3.22266C19.4023 4.73438 20.4922 6.5625 21.0195 7.82812C21.125 8.10938 21.125 8.42578 21.0195 8.70703C20.4922 9.9375 19.4023 11.7656 17.75 13.3125C16.0977 14.8594 13.8125 16.125 11 16.125C8.15234 16.125 5.86719 14.8594 4.21484 13.3125C2.5625 11.7656 1.47266 9.9375 0.945312 8.70703C0.839844 8.42578 0.839844 8.10938 0.945312 7.82812C1.47266 6.5625 2.5625 4.73438 4.21484 3.22266ZM11 2.0625C8.67969 2.0625 6.81641 3.11719 5.375 4.45312C4.00391 5.71875 3.08984 7.19531 2.59766 8.25C3.08984 9.30469 4.00391 10.8164 5.375 12.082C6.81641 13.418 8.67969 14.4375 11 14.4375C13.2852 14.4375 15.1484 13.418 16.5898 12.082C17.9609 10.8164 18.875 9.30469 19.3672 8.25C18.875 7.19531 17.9609 5.71875 16.5898 4.45312C15.1484 3.11719 13.2852 2.0625 11 2.0625Z" fill="#2B2C3A"/>
</svg>
